<?xml version="1.0" standalone="no"?>
<!DOCTYPE svg PUBLIC "-//W3C//DTD SVG 20010904//EN"
 "http://www.w3.org/TR/2001/REC-SVG-20010904/DTD/svg10.dtd">
<svg version="1.0" xmlns="http://www.w3.org/2000/svg"
 width="512.000000pt" height="512.000000pt" viewBox="0 0 512.000000 512.000000"
 preserveAspectRatio="xMidYMid meet">

<g transform="translate(0.000000,512.000000) scale(0.100000,-0.100000)"
fill="#000000" stroke="none">
<path d="M803 3581 c-321 -555 -583 -1015 -583 -1021 0 -6 262 -466 583 -1021
l582 -1009 1175 0 1175 0 583 1009 c320 555 582 1015 582 1021 0 6 -262 466
-582 1021 l-583 1009 -1175 0 -1175 0 -582 -1009z m1180 -24 l497 -864 -2
-383 -3 -384 -624 980 c-344 538 -631 990 -639 1004 -14 25 -10 34 124 268 76
133 141 242 145 242 3 0 229 -388 502 -863z m1791 638 l128 -224 -617 -1000
c-339 -550 -623 -1008 -631 -1018 -11 -15 -13 37 -14 361 l0 379 497 864 c273
475 500 863 503 863 3 0 63 -101 134 -225z m330 -573 l106 -182 -776 -1258
c-426 -691 -780 -1261 -785 -1266 -5 -6 -9 126 -9 344 l0 353 677 1098 c373
604 679 1097 680 1096 1 -1 49 -84 107 -185z m-2310 -932 l686 -1075 0 -360
c0 -301 -2 -357 -13 -345 -18 20 -1574 2441 -1582 2462 -4 9 7 37 23 64 16 27
67 113 112 192 45 79 84 142 85 140 2 -2 312 -487 689 -1078z m2715 231 c110
-191 201 -354 201 -361 0 -7 -241 -431 -536 -941 l-536 -929 -464 0 c-255 0
-464 2 -464 3 0 2 154 254 343 559 188 305 545 884 792 1286 248 402 453 731
456 732 4 0 97 -157 208 -349z m-2934 -931 c423 -657 784 -1219 802 -1248 l34
-52 -465 0 -464 0 -536 929 c-295 510 -536 934 -536 941 0 12 339 608 363 638
8 11 12 11 22 0 7 -7 358 -551 780 -1208z"/>
</g>
</svg>
